<?xml version="1.0" encoding="UTF-8"?>
<svg xmlns="http://www.w3.org/2000/svg" xmlns:xlink="http://www.w3.org/1999/xlink" width="2836" height="2835" viewBox="0 0 2836 2835">
<path fill-rule="evenodd" fill="rgb(100%, 100%, 100%)" fill-opacity="1" d="M 1 0.351562 L 2835.640625 0.351562 L 2835.640625 2835 L 1 2835 L 1 0.351562 "/>
<path fill-rule="evenodd" fill="rgb(61.914062%, 38.989258%, 23.997498%)" fill-opacity="1" d="M 966.757812 1299.300781 C 980.03125 1253.769531 985.316406 1207.488281 999.988281 1161.679688 C 1048.578125 1010.019531 1084.808594 1067.570312 1143.019531 1171.148438 C 1158.78125 1199.210938 1188.128906 1254.308594 1196.761719 1284 C 1389.191406 1293.371094 1585.179688 1342.71875 1754.78125 1426.371094 C 1773.769531 1435.738281 1802.28125 1454.910156 1817.839844 1459.511719 C 1845.960938 1437.621094 1857.148438 1421.140625 1905.960938 1385.390625 C 1923.019531 1372.898438 1988.808594 1330.230469 2015.761719 1342.351562 C 2028.5 1349.859375 2027.910156 1366.710938 2028.109375 1384.230469 C 2028.589844 1426.398438 2020.28125 1476.699219 2009.828125 1517.210938 C 2005.53125 1533.859375 1986.578125 1584.691406 1989.28125 1595.429688 C 1993.03125 1610.289062 2027.460938 1633.058594 2009.371094 1658.839844 C 1992.96875 1660.75 1988.609375 1653.011719 1979.769531 1643.710938 C 1972.238281 1635.789062 1965.339844 1629.871094 1957.101562 1621.160156 C 1747.820312 1399.890625 1395.878906 1311.199219 1093.351562 1319.648438 C 1055.460938 1320.699219 957.921875 1340.128906 935.972656 1333.03125 C 930.15625 1310.941406 946.53125 1306.578125 966.757812 1299.300781 Z M 2016.339844 691.578125 C 1980 694.308594 1858.351562 790.570312 1849.480469 805.921875 C 2024.660156 858.851562 2006.308594 1157.078125 1869.628906 1251.5 C 1785.46875 1309.640625 1680.351562 1276.378906 1638.769531 1201.179688 C 1618.339844 1164.21875 1611.28125 1109.921875 1617.550781 1058.269531 C 1625.011719 996.851562 1640.039062 973.691406 1656.460938 923.421875 C 1604.808594 932.558594 1594.851562 915.140625 1570.578125 887.679688 C 1563.238281 896.769531 1554.949219 970.96875 1532.929688 1022.839844 C 1514.160156 1067.070312 1492.230469 1097.78125 1460.960938 1128.421875 C 1387.539062 1200.351562 1270.449219 1176.589844 1226.359375 1098.199219 C 1165.28125 989.628906 1244.699219 798.558594 1343.210938 732.089844 C 1386.011719 703.210938 1424.96875 697.609375 1483.761719 708.449219 C 1477.320312 669.671875 1424.800781 538.558594 1403.421875 516.921875 C 1375.378906 527.878906 1336.039062 561.761719 1315.089844 578.679688 C 1275.320312 610.800781 1203.238281 696.898438 1172.398438 735.449219 C 1122.160156 798.25 1091.871094 845.929688 1023.289062 889.300781 C 929.488281 948.621094 838.921875 986.101562 784.085938 1102.800781 C 751.742188 1171.648438 738.496094 1274.949219 768.332031 1354.28125 C 865.03125 1611.390625 1202.800781 1567.730469 1410.800781 1617.171875 C 1628.859375 1669 1711.53125 1747.898438 1843.441406 1786.871094 C 2090.878906 1859.988281 2335.789062 1630.230469 2254.570312 1358.769531 C 2229.148438 1273.789062 2193.160156 1220.21875 2157.96875 1152.320312 C 2104.078125 1048.339844 2079.890625 797.898438 2016.339844 691.578125 "/>
<path fill-rule="evenodd" fill="rgb(1.000977%, 1.000977%, 1.000977%)" fill-opacity="1" d="M 1417.359375 2181.871094 C 1488.210938 2170.320312 1528.710938 2183.15625 1612.121094 2136.003906 C 1721.308594 2074.292969 1636.578125 2039.359375 1767.710938 2078.515625 C 1897.539062 2117.285156 1984.71875 2226.015625 1948.808594 2365.0625 C 1902.96875 2542.507812 1597.648438 2498.609375 1476.761719 2352.253906 C 1450.351562 2320.273438 1390.460938 2248.546875 1417.359375 2181.871094 Z M 588.941406 1924.078125 C 564.121094 1795.519531 790.984375 1746.730469 914.503906 1914.945312 C 953.410156 1967.933594 993.152344 2053.816406 956.386719 2121.195312 C 948.253906 2136.105469 925.941406 2159.851562 904.226562 2163.753906 C 840.738281 2175.167969 609.699219 2031.597656 588.941406 1924.078125 Z M 568.460938 1874.578125 C 538.78125 1789.128906 592.886719 1671.46875 695.792969 1634.28125 C 803.269531 1595.429688 919.234375 1645.039062 980.542969 1699.191406 C 1038.589844 1750.460938 1100.339844 1845.234375 1107.660156 1955.277344 C 1115.511719 2073.046875 1077.289062 2188.347656 939.378906 2172.449219 C 955.925781 2152.515625 1024.269531 2126.109375 983.480469 1995.464844 C 916.105469 1779.671875 662.949219 1723 587.1875 1832.148438 C 577.738281 1845.761719 576.074219 1862.082031 568.460938 1874.578125 Z M 1153.421875 2028.550781 C 1155.410156 1744.101562 1045.429688 1806.320312 1114.019531 1707.820312 C 1132.21875 1681.691406 1152.730469 1661.820312 1183.410156 1644.808594 C 1209.960938 1630.089844 1208.941406 1633.550781 1241.980469 1636.628906 C 1383.621094 1649.828125 1481.261719 1673.410156 1612.410156 1732.441406 C 1662.671875 1755.070312 1659.929688 1750.269531 1668.679688 1812.109375 C 1728.960938 2238.003906 1268.820312 2146.523438 1153.421875 2028.550781 Z M 1692.5 1025.03125 C 1681.378906 1006.871094 1689.871094 965.109375 1711.949219 974.148438 C 1722.929688 978.648438 1721.289062 997.351562 1717.441406 1008.75 C 1712.761719 1022.589844 1709.089844 1026.820312 1692.5 1025.03125 Z M 1669.230469 972.390625 C 1671.070312 957.128906 1682.851562 933.53125 1690.808594 919.53125 C 1699.28125 904.628906 1695.949219 909.550781 1712.96875 903.429688 C 1735.398438 895.371094 1762.320312 875.789062 1779.648438 862.050781 C 1806.300781 840.921875 1825.441406 807.160156 1879.789062 848.738281 C 1987.929688 931.46875 1949.851562 1199.851562 1816.210938 1243.378906 C 1761.710938 1261.128906 1703.871094 1237.648438 1680.78125 1207.921875 C 1650.421875 1168.828125 1643.148438 1123.980469 1647.339844 1063.078125 C 1655.191406 1074.570312 1654.910156 1085.550781 1666.820312 1092.980469 C 1697.011719 1111.800781 1731.53125 1080.289062 1742.171875 1037.359375 C 1759.910156 965.769531 1714.511719 918.828125 1669.230469 972.390625 Z M 1476.289062 966.019531 C 1471.429688 954.859375 1468.988281 948.171875 1474.800781 933.601562 C 1478.550781 924.179688 1486.96875 912.328125 1498.449219 916.699219 C 1514.558594 922.828125 1514.269531 971.109375 1476.289062 966.019531 Z M 1537.050781 916.25 L 1532.648438 927.148438 L 1527.921875 915.191406 C 1521.25 892.96875 1497.539062 881.511719 1472.820312 896.539062 C 1458.148438 905.46875 1444.601562 926.03125 1437.890625 948.539062 C 1431.261719 970.761719 1429.640625 999.269531 1442.058594 1018.300781 C 1458.019531 1042.75 1475.070312 1035.128906 1497.820312 1025.671875 C 1485.539062 1061.238281 1451.171875 1099.871094 1427.691406 1116.078125 C 1392.789062 1140.171875 1347.140625 1147.640625 1303.199219 1125.859375 C 1175.289062 1062.460938 1267.03125 763.539062 1418.769531 734.351562 C 1442.128906 729.851562 1469.578125 733.558594 1487.800781 742.671875 C 1504.421875 750.980469 1506.628906 773.691406 1513.621094 793.328125 C 1521.789062 816.261719 1528.28125 829.359375 1537.910156 849.339844 C 1547.578125 869.398438 1537.371094 892.769531 1537.050781 916.25 Z M 2016.339844 691.578125 C 2079.890625 797.898438 2104.078125 1048.339844 2157.96875 1152.320312 C 2193.160156 1220.21875 2229.148438 1273.789062 2254.570312 1358.769531 C 2335.789062 1630.230469 2090.878906 1859.988281 1843.441406 1786.871094 C 1711.53125 1747.898438 1628.859375 1669 1410.800781 1617.171875 C 1202.800781 1567.730469 865.03125 1611.390625 768.332031 1354.28125 C 738.496094 1274.949219 751.742188 1171.648438 784.085938 1102.800781 C 838.921875 986.101562 929.488281 948.621094 1023.289062 889.300781 C 1091.871094 845.929688 1122.160156 798.25 1172.398438 735.449219 C 1203.238281 696.898438 1275.320312 610.800781 1315.089844 578.679688 C 1336.039062 561.761719 1375.378906 527.878906 1403.421875 516.921875 C 1424.800781 538.558594 1477.320312 669.671875 1483.761719 708.449219 C 1424.96875 697.609375 1386.011719 703.210938 1343.210938 732.089844 C 1244.699219 798.558594 1165.28125 989.628906 1226.359375 1098.199219 C 1270.449219 1176.589844 1387.539062 1200.351562 1460.960938 1128.421875 C 1492.230469 1097.78125 1514.160156 1067.070312 1532.929688 1022.839844 C 1554.949219 970.96875 1563.238281 896.769531 1570.578125 887.679688 C 1594.851562 915.140625 1604.808594 932.558594 1656.460938 923.421875 C 1640.039062 973.691406 1625.011719 996.851562 1617.550781 1058.269531 C 1611.28125 1109.921875 1618.339844 1164.21875 1638.769531 1201.179688 C 1680.351562 1276.378906 1785.46875 1309.640625 1869.628906 1251.5 C 2006.308594 1157.078125 2024.660156 858.851562 1849.480469 805.921875 C 1858.351562 790.570312 1980 694.308594 2016.339844 691.578125 Z M 1707.601562 758.621094 C 1703.519531 784.628906 1696.308594 923.140625 1617.179688 895.710938 C 1588.21875 885.671875 1582.898438 847.429688 1591.609375 813.640625 C 1603.449219 767.730469 1623.738281 754.441406 1630.199219 736.511719 C 1596.191406 744.488281 1584.890625 774.351562 1568.128906 805.121094 C 1546.078125 755.039062 1543.460938 623.730469 1531.640625 548.878906 C 1527.511719 522.679688 1518.160156 492.050781 1515.390625 469.039062 C 1603.539062 449.089844 1687.910156 454.210938 1771.621094 479.628906 C 1824.859375 495.800781 1932.03125 552.441406 1949.660156 590.300781 C 1927.089844 613.21875 1904.730469 626.738281 1884.789062 650.300781 C 1865.839844 672.691406 1848.058594 691.558594 1828.898438 716.179688 C 1805.339844 746.449219 1745.179688 834.929688 1715.878906 848.519531 C 1718.53125 826.089844 1731.160156 769.109375 1707.601562 758.621094 Z M 1225.351562 446.910156 C 1255.050781 443.898438 1267.371094 436.378906 1301.609375 444.640625 C 1322.75 449.730469 1352.808594 459.929688 1361.398438 475.378906 C 1349.609375 487.441406 1334.761719 494.328125 1321.019531 504.480469 C 1306.769531 515.011719 1295.859375 525.480469 1282.628906 535.660156 C 1210.261719 591.351562 1138.839844 701.640625 1086.898438 761.289062 C 1020.140625 837.960938 1026.621094 829.480469 932.734375 889.269531 C 798.808594 974.558594 717.480469 1046.328125 697.789062 1214.53125 C 679.171875 1373.601562 764.507812 1505.441406 903.550781 1570.878906 C 985.277344 1609.339844 1033.320312 1614.351562 1128.519531 1628.398438 C 1119.480469 1640.011719 1093.160156 1653.03125 1069.570312 1684.199219 C 1062.71875 1693.238281 1061.238281 1698.949219 1051.699219 1706.96875 C 1027.160156 1691.539062 955.628906 1587.25 803.539062 1573.910156 C 761.4375 1570.21875 724.328125 1576.179688 690.101562 1586.988281 C 545.09375 1632.800781 484.351562 1781.398438 531.640625 1918.101562 C 587.660156 2080.046875 836.078125 2237.429688 1002.140625 2209.035156 C 1066.460938 2198.039062 1123.871094 2147.644531 1138.578125 2086.945312 C 1152.949219 2092.800781 1171.601562 2106.882812 1187.699219 2115.40625 C 1261.808594 2154.617188 1282.578125 2157.867188 1367.328125 2176.511719 C 1370.929688 2198.644531 1357.160156 2214.671875 1376.351562 2271.351562 C 1437.511719 2451.957031 1713.03125 2582.488281 1888.929688 2503.660156 C 2081.871094 2417.203125 2043.640625 2051.53125 1706.378906 2025.179688 C 1728.738281 1918.691406 1732.25 1958.484375 1721.128906 1843.910156 C 1718.871094 1820.601562 1712.808594 1806.269531 1711.070312 1784.851562 C 1748.671875 1792.191406 1913.980469 1919.132812 2120.621094 1808.890625 C 2197.390625 1767.929688 2246.03125 1713.351562 2283.371094 1644.328125 C 2314.300781 1587.171875 2320.800781 1549.410156 2320.789062 1481.808594 C 2320.78125 1387.390625 2308.191406 1339.640625 2275.421875 1264.609375 C 2247.269531 1200.179688 2209.25 1153.441406 2182.769531 1092.050781 C 2160.878906 1041.320312 2147.390625 941.640625 2132.488281 881.46875 C 2124.179688 847.929688 2115.449219 810.730469 2104.738281 777.039062 C 2098.75 758.199219 2072.078125 689.960938 2073.261719 678.769531 C 2145.410156 666.980469 2190.128906 730.519531 2205.128906 743.109375 C 2213.910156 609.679688 2136.898438 518.300781 2002.410156 561 C 1993.96875 556.238281 1955.308594 511.921875 1909.929688 484.238281 C 1834.5 438.238281 1742.671875 405.378906 1650.828125 403.699219 C 1602.980469 402.820312 1531.449219 405.351562 1493.96875 419.539062 C 1471.699219 400.289062 1467.878906 388.410156 1438.25 370.828125 C 1390.378906 342.429688 1320.511719 350.800781 1275.140625 388.921875 C 1261.238281 400.589844 1228.28125 430.921875 1225.351562 446.910156 "/>
<path fill-rule="evenodd" fill="rgb(91.992188%, 85.9375%, 65.039062%)" fill-opacity="1" d="M 1153.421875 2028.550781 C 1268.820312 2146.523438 1728.960938 2238.003906 1668.679688 1812.109375 C 1659.929688 1750.269531 1662.671875 1755.070312 1612.410156 1732.441406 C 1481.261719 1673.410156 1383.621094 1649.828125 1241.980469 1636.628906 C 1208.941406 1633.550781 1209.960938 1630.089844 1183.410156 1644.808594 C 1152.730469 1661.820312 1132.21875 1681.691406 1114.019531 1707.820312 C 1045.429688 1806.320312 1155.410156 1744.101562 1153.421875 2028.550781 "/>
<path fill-rule="evenodd" fill="rgb(41.992188%, 28.001404%, 22.996521%)" fill-opacity="1" d="M 1417.359375 2181.871094 C 1390.460938 2248.546875 1450.351562 2320.273438 1476.761719 2352.253906 C 1597.648438 2498.609375 1902.96875 2542.507812 1948.808594 2365.0625 C 1984.71875 2226.015625 1897.539062 2117.285156 1767.710938 2078.515625 C 1636.578125 2039.359375 1721.308594 2074.292969 1612.121094 2136.003906 C 1528.710938 2183.15625 1488.210938 2170.320312 1417.359375 2181.871094 "/>
<path fill-rule="evenodd" fill="rgb(41.992188%, 28.001404%, 22.996521%)" fill-opacity="1" d="M 568.460938 1874.578125 C 576.074219 1862.082031 577.738281 1845.761719 587.1875 1832.148438 C 662.949219 1723 916.105469 1779.671875 983.480469 1995.464844 C 1024.269531 2126.109375 955.925781 2152.515625 939.378906 2172.449219 C 1077.289062 2188.347656 1115.511719 2073.046875 1107.660156 1955.277344 C 1100.339844 1845.234375 1038.589844 1750.460938 980.542969 1699.191406 C 919.234375 1645.039062 803.269531 1595.429688 695.792969 1634.28125 C 592.886719 1671.46875 538.78125 1789.128906 568.460938 1874.578125 "/>
<path fill-rule="evenodd" fill="rgb(63.084412%, 38.989258%, 22.996521%)" fill-opacity="1" d="M 1515.390625 469.039062 C 1518.160156 492.050781 1527.511719 522.679688 1531.640625 548.878906 C 1543.460938 623.730469 1546.078125 755.039062 1568.128906 805.121094 C 1584.890625 774.351562 1596.191406 744.488281 1630.199219 736.511719 C 1623.738281 754.441406 1603.449219 767.730469 1591.609375 813.640625 C 1582.898438 847.429688 1588.21875 885.671875 1617.179688 895.710938 C 1696.308594 923.140625 1703.519531 784.628906 1707.601562 758.621094 C 1731.160156 769.109375 1718.53125 826.089844 1715.878906 848.519531 C 1745.179688 834.929688 1805.339844 746.449219 1828.898438 716.179688 C 1848.058594 691.558594 1865.839844 672.691406 1884.789062 650.300781 C 1904.730469 626.738281 1927.089844 613.21875 1949.660156 590.300781 C 1932.03125 552.441406 1824.859375 495.800781 1771.621094 479.628906 C 1687.910156 454.210938 1603.539062 449.089844 1515.390625 469.039062 "/>
<path fill-rule="evenodd" fill="rgb(82.03125%, 67.96875%, 43.992615%)" fill-opacity="1" d="M 588.941406 1924.078125 C 609.699219 2031.597656 840.738281 2175.167969 904.226562 2163.753906 C 925.941406 2159.851562 948.253906 2136.105469 956.386719 2121.195312 C 993.152344 2053.816406 953.410156 1967.933594 914.503906 1914.945312 C 790.984375 1746.730469 564.121094 1795.519531 588.941406 1924.078125 "/>
<path fill-rule="evenodd" fill="rgb(100%, 100%, 100%)" fill-opacity="1" d="M 1669.230469 972.390625 C 1714.511719 918.828125 1759.910156 965.769531 1742.171875 1037.359375 C 1731.53125 1080.289062 1697.011719 1111.800781 1666.820312 1092.980469 C 1654.910156 1085.550781 1655.191406 1074.570312 1647.339844 1063.078125 C 1643.148438 1123.980469 1650.421875 1168.828125 1680.78125 1207.921875 C 1703.871094 1237.648438 1761.710938 1261.128906 1816.210938 1243.378906 C 1949.851562 1199.851562 1987.929688 931.46875 1879.789062 848.738281 C 1825.441406 807.160156 1806.300781 840.921875 1779.648438 862.050781 C 1762.320312 875.789062 1735.398438 895.371094 1712.96875 903.429688 C 1695.949219 909.550781 1699.28125 904.628906 1690.808594 919.53125 C 1682.851562 933.53125 1671.070312 957.128906 1669.230469 972.390625 "/>
<path fill-rule="evenodd" fill="rgb(100%, 100%, 100%)" fill-opacity="1" d="M 1527.921875 915.191406 L 1537.050781 916.25 C 1537.371094 892.769531 1547.578125 869.398438 1537.910156 849.339844 C 1528.28125 829.359375 1521.789062 816.261719 1513.621094 793.328125 C 1506.628906 773.691406 1504.421875 750.980469 1487.800781 742.671875 C 1469.578125 733.558594 1442.128906 729.851562 1418.769531 734.351562 C 1267.03125 763.539062 1175.289062 1062.460938 1303.199219 1125.859375 C 1347.140625 1147.640625 1392.789062 1140.171875 1427.691406 1116.078125 C 1451.171875 1099.871094 1485.539062 1061.238281 1497.820312 1025.671875 C 1475.070312 1035.128906 1458.019531 1042.75 1442.058594 1018.300781 C 1429.640625 999.269531 1431.261719 970.761719 1437.890625 948.539062 C 1444.601562 926.03125 1458.148438 905.46875 1472.820312 896.539062 C 1497.539062 881.511719 1521.25 892.96875 1527.921875 915.191406 "/>
<path fill-rule="evenodd" fill="rgb(1.000977%, 1.000977%, 1.000977%)" fill-opacity="1" d="M 1848.769531 1482.03125 C 1858.148438 1458.851562 1958.851562 1375.730469 1999.230469 1366.730469 C 2003.78125 1432.871094 1978.519531 1509.648438 1962.179688 1566.589844 C 1938.191406 1552.210938 1889.351562 1502.089844 1848.769531 1482.03125 Z M 1005.140625 1290.871094 C 1010.839844 1242.128906 1033.160156 1132.800781 1055.460938 1099.601562 C 1080.179688 1109.75 1142.921875 1241.460938 1150.878906 1280.640625 Z M 966.757812 1299.300781 C 946.53125 1306.578125 930.15625 1310.941406 935.972656 1333.03125 C 957.921875 1340.128906 1055.460938 1320.699219 1093.351562 1319.648438 C 1395.878906 1311.199219 1747.820312 1399.890625 1957.101562 1621.160156 C 1965.339844 1629.871094 1972.238281 1635.789062 1979.769531 1643.710938 C 1988.609375 1653.011719 1992.96875 1660.75 2009.371094 1658.839844 C 2027.460938 1633.058594 1993.03125 1610.289062 1989.28125 1595.429688 C 1986.578125 1584.691406 2005.53125 1533.859375 2009.828125 1517.210938 C 2020.28125 1476.699219 2028.589844 1426.398438 2028.109375 1384.230469 C 2027.910156 1366.710938 2028.5 1349.859375 2015.761719 1342.351562 C 1988.808594 1330.230469 1923.019531 1372.898438 1905.960938 1385.390625 C 1857.148438 1421.140625 1845.960938 1437.621094 1817.839844 1459.511719 C 1802.28125 1454.910156 1773.769531 1435.738281 1754.78125 1426.371094 C 1585.179688 1342.71875 1389.191406 1293.371094 1196.761719 1284 C 1188.128906 1254.308594 1158.78125 1199.210938 1143.019531 1171.148438 C 1084.808594 1067.570312 1048.578125 1010.019531 999.988281 1161.679688 C 985.316406 1207.488281 980.03125 1253.769531 966.757812 1299.300781 "/>
<path fill-rule="evenodd" fill="rgb(99.021912%, 99.021912%, 99.021912%)" fill-opacity="1" d="M 1005.140625 1290.871094 L 1150.878906 1280.640625 C 1142.921875 1241.460938 1080.179688 1109.75 1055.460938 1099.601562 C 1033.160156 1132.800781 1010.839844 1242.128906 1005.140625 1290.871094 "/>
<path fill-rule="evenodd" fill="rgb(99.021912%, 99.021912%, 99.021912%)" fill-opacity="1" d="M 1848.769531 1482.03125 C 1889.351562 1502.089844 1938.191406 1552.210938 1962.179688 1566.589844 C 1978.519531 1509.648438 2003.78125 1432.871094 1999.230469 1366.730469 C 1958.851562 1375.730469 1858.148438 1458.851562 1848.769531 1482.03125 "/>
<path fill-rule="evenodd" fill="rgb(98.046875%, 98.046875%, 98.046875%)" fill-opacity="1" d="M 1476.289062 966.019531 C 1514.269531 971.109375 1514.558594 922.828125 1498.449219 916.699219 C 1486.96875 912.328125 1478.550781 924.179688 1474.800781 933.601562 C 1468.988281 948.171875 1471.429688 954.859375 1476.289062 966.019531 "/>
<path fill-rule="evenodd" fill="rgb(98.046875%, 98.046875%, 98.046875%)" fill-opacity="1" d="M 1692.5 1025.03125 C 1709.089844 1026.820312 1712.761719 1022.589844 1717.441406 1008.75 C 1721.289062 997.351562 1722.929688 978.648438 1711.949219 974.148438 C 1689.871094 965.109375 1681.378906 1006.871094 1692.5 1025.03125 "/>
<path fill-rule="evenodd" fill="rgb(65.039062%, 65.039062%, 65.039062%)" fill-opacity="1" d="M 1537.050781 916.25 L 1527.921875 915.191406 L 1532.648438 927.148438 Z M 1537.050781 916.25 "/>
</svg>
